<?xml version="1.0" standalone="no"?>
<!DOCTYPE svg PUBLIC "-//W3C//DTD SVG 20010904//EN"
 "http://www.w3.org/TR/2001/REC-SVG-20010904/DTD/svg10.dtd">
<svg version="1.0" xmlns="http://www.w3.org/2000/svg"
 width="460.000000pt" height="460.000000pt" viewBox="0 0 460.000000 460.000000"
 preserveAspectRatio="xMidYMid meet">
<metadata>
Created by potrace 1.11, written by Peter Selinger 2001-2013
</metadata>
<g transform="translate(0.000000,460.000000) scale(0.100000,-0.100000)"
fill="#000000" stroke="none">
<path d="M0 2300 l0 -2300 1744 0 1743 0 -4 147 c-5 212 -6 206 16 224 25 21
29 72 8 119 -16 36 -46 67 -107 110 -19 14 -41 34 -50 45 -8 10 -67 71 -131
135 -64 63 -119 125 -123 138 -12 35 -74 72 -124 72 -51 0 -58 11 -42 71 15
57 36 79 74 79 38 0 66 -18 326 -197 30 -21 71 -44 91 -51 41 -14 135 -16 143
-4 10 17 -138 132 -169 132 -7 0 -16 14 -20 31 -4 17 -19 42 -34 55 -57 52
-87 74 -98 74 -7 0 -16 6 -20 14 -4 7 -17 18 -28 24 -12 6 -21 22 -23 37 -1
15 -4 31 -8 36 -9 15 -60 10 -74 -6 -32 -38 -31 22 1 103 11 25 11 39 2 63
-10 25 -9 37 2 60 8 15 15 35 15 44 0 9 4 13 10 10 5 -3 7 0 4 8 -7 19 36 51
50 37 6 -6 19 -10 31 -10 12 0 29 -6 39 -13 17 -13 18 -16 2 -48 -9 -19 -28
-42 -43 -51 l-28 -17 25 -9 c14 -5 45 -26 70 -47 24 -20 65 -51 90 -68 25 -17
84 -68 132 -114 74 -70 92 -83 120 -83 l33 1 -28 24 c-16 14 -25 30 -22 36 4
5 1 18 -7 27 -8 9 -20 35 -26 58 -19 65 -88 142 -157 175 -29 14 -30 17 -28
72 2 44 0 57 -11 57 -8 0 -18 -9 -21 -21 -5 -15 -12 -19 -28 -15 -12 3 -26 6
-31 6 -4 0 -6 11 -4 25 3 14 1 25 -3 25 -15 0 -10 20 16 76 28 59 50 71 110
60 29 -6 48 -24 112 -102 72 -88 131 -167 153 -204 16 -27 21 -3 24 111 l3
114 -35 32 c-21 20 -45 33 -61 33 -14 0 -48 7 -75 15 -26 8 -52 13 -56 10 -4
-3 -13 2 -20 10 -6 7 -18 11 -25 9 -7 -3 -29 2 -49 11 -19 9 -54 16 -78 15
-24 -2 -50 0 -58 3 -37 13 -158 46 -183 50 -15 2 -30 0 -33 -4 -8 -13 -35 -11
-68 6 -54 28 -101 -8 -62 -48 13 -12 9 -16 -25 -27 -22 -8 -58 -31 -79 -51
-76 -74 -72 -44 -70 -482 1 -371 7 -478 25 -434 6 14 16 6 55 -45 26 -35 55
-70 65 -78 22 -18 83 -40 115 -40 93 -1 93 -36 1 -45 -64 -6 -93 -4 -186 12
-54 9 -59 8 -65 -17 -5 -21 -11 -25 -41 -22 -26 2 -30 0 -19 -7 8 -6 23 -11
33 -11 9 0 17 -4 17 -10 0 -5 -19 -3 -41 5 -23 8 -52 15 -65 15 -27 0 -33 19
-6 21 9 1 20 1 25 0 4 0 7 3 7 8 0 9 -30 25 -42 23 -5 -1 -8 2 -8 7 0 16 38
23 60 11 28 -15 50 -6 50 19 0 11 -17 52 -37 90 -38 74 -40 98 -3 61 30 -30
37 -18 11 18 -23 33 -55 56 -88 64 -20 5 -23 2 -23 -23 0 -28 34 -104 51 -115
5 -3 9 -14 9 -25 0 -20 -24 -26 -35 -8 -4 6 -13 8 -20 5 -15 -5 -25 35 -25
105 0 27 -4 49 -9 49 -5 0 -12 8 -14 17 -3 13 -5 10 -6 -7 -2 -25 -22 -60 -35
-60 -3 0 -6 14 -6 30 0 86 -73 271 -110 278 -9 1 -24 -15 -38 -40 -12 -24 -47
-70 -77 -103 -56 -62 -74 -68 -30 -11 42 55 92 184 114 293 25 123 26 143 5
143 -17 0 -17 4 7 70 30 88 28 85 44 64 8 -11 15 -38 15 -61 0 -27 4 -42 12
-40 6 1 14 -9 18 -23 6 -24 6 -24 12 -3 3 11 4 38 1 60 -2 21 3 65 11 98 18
65 22 139 7 116 -7 -11 -11 -9 -21 8 -13 26 -4 101 12 101 26 0 -29 177 -62
200 -4 3 -23 30 -42 61 -60 94 -157 135 -300 127 -149 -8 -246 -85 -323 -255
-36 -81 -40 -96 -43 -191 -3 -75 0 -115 12 -149 9 -26 16 -55 16 -66 0 -16 -3
-17 -15 -7 -12 10 -15 9 -15 -7 0 -18 38 -63 54 -63 3 0 4 58 0 128 -9 177 5
197 108 153 42 -18 87 -27 181 -36 27 -3 53 -7 58 -11 5 -3 9 -2 9 3 0 10 146
10 156 0 4 -3 -1 -18 -10 -32 -9 -13 -19 -46 -23 -72 -3 -27 -10 -56 -15 -65
-11 -23 7 -58 30 -58 35 0 -11 -19 -63 -25 -27 -3 -62 -11 -77 -17 -25 -9 -27
-14 -23 -47 2 -20 7 -71 10 -113 l6 -77 -30 -16 c-17 -8 -38 -15 -48 -16 -10
0 -13 -3 -5 -6 6 -2 12 -22 12 -43 0 -39 -16 -55 -44 -44 -8 3 -17 1 -21 -5
-3 -6 0 -12 7 -12 77 -7 119 -19 64 -19 -23 0 -27 -4 -24 -22 3 -20 10 -24 60
-28 64 -6 76 -13 59 -34 -13 -16 -87 -13 -143 4 -22 7 -30 5 -38 -8 -9 -15
-12 -15 -30 7 -11 13 -20 34 -20 47 0 35 -41 94 -66 94 -12 0 -32 -16 -50 -40
-18 -25 -35 -38 -45 -35 -8 3 -35 -8 -60 -25 -26 -18 -57 -30 -76 -30 -34 0
-44 14 -18 24 8 3 15 12 15 21 0 8 5 15 10 15 6 0 10 4 10 8 0 4 -52 9 -115
10 -64 0 -120 4 -125 7 -5 3 -23 -1 -40 -10 -24 -12 -35 -13 -53 -4 -36 19
-57 41 -57 61 0 11 -4 17 -9 14 -5 -4 -7 3 -4 15 8 31 43 49 99 50 68 1 162
17 208 35 39 15 68 42 60 56 -2 3 0 18 6 33 7 19 7 25 -3 24 -32 -4 -47 2 -47
20 0 26 -17 37 -68 45 -38 6 -43 4 -40 -11 2 -14 15 -19 51 -21 33 -2 47 -7
47 -18 0 -17 -13 -18 -79 -2 -28 6 -51 17 -51 24 0 18 -58 22 -104 7 -45 -15
-90 -4 -143 34 -28 21 -31 27 -23 49 14 35 12 44 -6 44 -21 0 -47 -27 -34 -35
14 -8 13 -45 -1 -45 -13 0 -55 -42 -61 -60 -3 -11 -30 -12 -161 -9 -47 1 -74
-4 -92 -15 -13 -9 -37 -16 -53 -16 -22 0 -34 -9 -56 -45 -16 -25 -30 -45 -31
-45 -12 0 -75 72 -70 80 4 6 8 22 9 35 5 42 44 68 116 80 25 4 67 13 94 21 27
8 64 14 82 14 18 0 34 4 36 10 4 13 119 45 188 53 35 4 46 3 30 -3 l-25 -8 26
-1 c15 -1 29 5 33 14 6 17 89 19 183 6 63 -9 199 6 201 22 1 7 4 35 6 62 3 28
9 65 15 83 5 17 9 32 8 33 -1 0 -27 3 -57 6 -30 3 -62 9 -72 14 -9 5 -24 9
-32 9 -9 0 -29 14 -45 32 -28 31 -29 31 -73 19 -43 -12 -113 -10 -196 5 -18 4
-38 2 -45 -4 -35 -29 -112 -60 -164 -67 -62 -8 -93 -20 -106 -41 -4 -8 -15
-14 -22 -14 -8 0 -15 -3 -15 -8 0 -13 -97 -54 -121 -50 -20 2 -24 8 -22 33 4
47 35 78 109 108 37 15 100 43 139 61 38 19 97 42 130 52 33 10 62 21 65 24 3
3 24 11 46 18 49 14 127 15 247 2 49 -5 111 -6 139 -3 l50 6 -6 36 c-3 20 -1
54 5 75 13 46 6 55 -21 31 -18 -17 -20 -17 -20 -1 0 9 -11 28 -25 42 -21 21
-30 23 -65 18 -23 -4 -47 -13 -55 -20 -7 -8 -27 -14 -44 -14 -38 0 -80 -16
-107 -41 -20 -18 -22 -19 -28 -3 -9 24 17 59 56 75 18 7 60 32 94 55 99 67
233 96 544 118 176 12 303 7 505 -20 129 -17 154 -20 200 -23 26 -2 27 -4 10
-11 -11 -5 -14 -9 -7 -9 8 -1 24 7 37 17 28 22 19 48 -14 37 -19 -6 -21 -3
-19 29 3 38 12 46 22 20 4 -11 13 -14 31 -10 22 6 25 3 25 -19 0 -15 5 -35 11
-46 7 -15 7 -24 -2 -35 -8 -10 -8 -14 0 -14 6 0 11 -5 11 -11 0 -5 13 -24 29
-41 27 -29 30 -38 36 -137 3 -58 7 -113 8 -121 3 -21 42 -24 69 -6 12 9 39 16
60 16 30 0 38 4 38 18 0 10 5 23 12 30 17 17 142 15 263 -3 55 -9 134 -20 175
-25 41 -6 107 -17 145 -25 39 -8 102 -19 141 -25 54 -9 80 -18 105 -40 l34
-28 -3 -118 c-1 -66 -7 -160 -13 -211 -6 -51 -8 -122 -4 -158 6 -61 11 -71 58
-127 102 -119 111 -137 111 -203 1 -58 -18 -125 -34 -125 -5 0 -8 24 -8 53 1
75 -7 93 -39 92 -35 0 -40 -23 -19 -76 9 -22 16 -50 16 -63 0 -14 6 -27 13
-29 9 -4 8 -8 -3 -16 -8 -6 -12 -11 -7 -11 8 0 -70 -160 -78 -160 -3 0 -4 3
-4 8 5 28 -4 63 -20 83 l-19 24 -21 -24 c-12 -13 -21 -38 -21 -55 0 -17 -9
-51 -20 -75 -24 -53 -26 -101 -4 -101 8 0 12 -4 9 -10 -3 -5 3 -10 13 -10 13
0 24 10 31 30 5 16 13 30 16 30 6 0 3 -17 -30 -150 -12 -52 -28 -126 -34 -165
-28 -166 -39 -221 -46 -237 -7 -17 21 -18 499 -18 l506 0 0 2300 0 2300 -2300
0 -2300 0 0 -2300z m2760 2175 c0 -8 -4 -15 -10 -15 -5 0 -10 7 -10 15 0 8 5
15 10 15 6 0 10 -7 10 -15z m270 -1474 c0 -17 -3 -18 -25 -8 l-24 12 22 7 c12
3 23 6 25 7 1 1 2 -8 2 -18z m-45 -21 c3 -5 -3 -10 -14 -10 -12 0 -21 5 -21
10 0 6 6 10 14 10 8 0 18 -4 21 -10z m-2043 -72 c-9 -9 -15 -9 -24 0 -9 9 -7
12 12 12 19 0 21 -3 12 -12z m1085 -78 c6 -25 33 -81 44 -90 17 -14 59 -115
54 -130 -6 -20 7 -61 28 -81 23 -24 47 -76 47 -104 0 -33 -25 -43 -50 -20 -13
12 -38 19 -70 20 -57 2 -89 25 -121 87 -25 48 -19 181 13 320 10 42 13 45 30
35 10 -7 21 -23 25 -37z m700 -116 c18 -5 20 -9 10 -19 -7 -7 -23 -16 -35 -19
-19 -6 -22 -4 -22 18 0 27 8 30 47 20z m40 -90 c-3 -3 -12 -4 -19 -1 -8 3 -5
6 6 6 11 1 17 -2 13 -5z m-194 -351 c-7 -2 -21 -2 -30 0 -10 3 -4 5 12 5 17 0
24 -2 18 -5z m-453 -175 c0 -19 -2 -20 -10 -8 -13 19 -13 30 0 30 6 0 10 -10
10 -22z m43 -34 c-8 -21 -23 -17 -23 6 0 13 5 18 14 14 8 -3 12 -12 9 -20z
m217 -358 c0 -33 -10 -57 -21 -50 -16 9 -11 74 6 74 9 0 15 -9 15 -24z m950
-195 c0 -5 -7 -11 -15 -15 -9 -3 -15 0 -15 9 0 8 7 15 15 15 8 0 15 -4 15 -9z
m27 -33 c-3 -8 -6 -5 -6 6 -1 11 2 17 5 13 3 -3 4 -12 1 -19z m-1287 -360 c0
24 20 12 20 -13 0 -21 -5 -25 -30 -25 -31 0 -35 7 -23 49 l6 23 13 -23 c7 -13
13 -18 14 -11z m324 -70 c15 -22 36 -171 34 -234 -1 -24 -9 -35 -39 -52 -27
-16 -44 -20 -61 -14 -33 12 -139 8 -163 -6 -21 -12 -15 -15 27 -12 14 1 40 -6
57 -14 38 -20 74 -20 130 0 24 8 46 12 50 9 3 -4 6 -55 7 -113 0 -59 4 -141 8
-182 12 -117 27 -111 -275 -120 -140 -4 -267 -6 -284 -5 -16 1 -82 3 -146 3
l-117 2 14 63 c8 34 19 87 24 117 5 30 14 75 20 100 12 54 40 202 40 213 0 4
9 7 20 7 11 0 20 5 20 10 0 6 -4 10 -10 10 -19 0 -11 86 10 113 11 14 27 42
35 61 11 25 22 36 36 36 18 0 19 -3 9 -14 -9 -12 -7 -24 9 -60 17 -39 28 -49
76 -71 51 -22 66 -45 31 -45 -8 0 -19 -7 -26 -15 -6 -8 -24 -14 -38 -14 -51 0
-103 -13 -99 -25 5 -13 236 -9 253 5 13 10 68 2 72 -12 2 -5 8 -7 13 -3 5 3 5
13 -1 25 -15 26 -8 34 53 62 90 41 136 74 131 94 -3 10 -1 36 3 57 l9 40 17
-35 c17 -34 23 -26 19 24 -2 24 15 21 32 -5z m-317 -134 c-3 -3 -12 -4 -19 -1
-8 3 -5 6 6 6 11 1 17 -2 13 -5z m216 -181 c-7 -2 -19 -2 -25 0 -7 3 -2 5 12
5 14 0 19 -2 13 -5z m275 -95 c2 -9 -4 -18 -13 -21 -11 -5 -15 0 -15 19 0 28
23 29 28 2z m1153 -45 c-12 -20 -14 -14 -5 12 4 9 9 14 11 11 3 -2 0 -13 -6
-23z m-1181 -27 c0 -8 -4 -18 -10 -21 -5 -3 -10 3 -10 14 0 12 5 21 10 21 6 0
10 -6 10 -14z m187 -163 c-2 -27 -3 -5 -3 47 0 52 1 74 3 48 2 -27 2 -69 0
-95z m-17 33 c0 -43 -5 -78 -11 -81 -6 -4 -22 3 -35 16 -21 20 -26 21 -34 9
-7 -11 -10 -7 -9 15 0 34 17 80 19 55 1 -8 6 -1 11 17 8 27 20 37 52 42 4 0 7
-32 7 -73z m-219 17 c-8 -15 -10 -15 -11 -2 0 17 10 32 18 25 2 -3 -1 -13 -7
-23z m113 -39 c8 -20 8 -64 0 -64 -16 0 -31 30 -27 53 6 30 18 35 27 11z
m-117 -58 c-11 -27 -27 -17 -27 16 0 30 1 31 16 16 9 -9 14 -24 11 -32z"/>
<path d="M2123 758 c1 -7 -4 -12 -10 -13 -7 0 -13 -3 -13 -7 0 -5 0 -10 0 -13
0 -3 9 -1 20 5 21 11 28 40 10 40 -5 0 -9 -5 -7 -12z"/>
<path d="M2580 2240 c0 -5 5 -10 11 -10 5 0 7 5 4 10 -3 6 -8 10 -11 10 -2 0
-4 -4 -4 -10z"/>
<path d="M1374 1805 c-13 -32 36 -52 83 -34 l28 11 -24 19 c-27 22 -79 25 -87
4z"/>
<path d="M1813 1466 c4 -10 1 -19 -8 -22 -22 -9 -8 -24 21 -24 20 0 24 -4 20
-18 -7 -21 16 -45 57 -61 36 -14 71 2 64 29 -2 10 4 25 15 35 20 16 20 17 2
29 -11 7 -47 18 -82 25 -35 6 -70 15 -79 18 -12 5 -15 2 -10 -11z"/>
<path d="M2416 1402 c-2 -4 -7 -23 -11 -43 -5 -28 -3 -36 8 -36 10 0 14 12 13
44 -1 45 -2 48 -10 35z"/>
<path d="M1482 1106 c2 -1 10 -7 18 -13 11 -9 19 -8 33 2 16 12 14 13 -18 13
-20 0 -35 -1 -33 -2z"/>
<path d="M1370 1080 c-8 -5 -10 -10 -5 -10 6 0 17 5 25 10 8 5 11 10 5 10 -5
0 -17 -5 -25 -10z"/>
<path d="M2696 755 c8 -37 14 -45 14 -19 0 10 -5 26 -10 34 -8 11 -9 7 -4 -15z"/>
</g>
</svg>
